<svg width="256" height="395" viewBox="0 0 256 395" fill="none" xmlns="http://www.w3.org/2000/svg">
<rect x="-152" y="156.707" width="1" height="336" transform="rotate(-45 -152 156.707)" fill="#191919"/>
<rect x="-132" y="116.707" width="1" height="336" transform="rotate(-45 -132 116.707)" fill="#191919"/>
<rect x="-122" y="156.707" width="1" height="336" transform="rotate(-45 -122 156.707)" fill="#191919"/>
<rect x="-92" y="126.707" width="1" height="336" transform="rotate(-45 -92 126.707)" fill="#191919"/>
<rect x="-132" y="46.7072" width="1" height="336" transform="rotate(-45 -132 46.7072)" fill="#191919"/>
<rect x="-22.8855" y="70.7072" width="1" height="336" transform="rotate(-45 -22.8855 70.7072)" fill="#191919"/>
<rect x="-12.8855" y="110.707" width="1" height="336" transform="rotate(-45 -12.8855 110.707)" fill="#191919"/>
<rect x="17.1145" y="80.7072" width="1" height="336" transform="rotate(-45 17.1145 80.7072)" fill="#191919"/>
<rect x="-22.8855" y="0.707153" width="1" height="336" transform="rotate(-45 -22.8855 0.707153)" fill="#191919"/>
</svg>
