<svg width="402" height="366" viewBox="0 0 402 366" fill="none" xmlns="http://www.w3.org/2000/svg">
<rect x="11" y="113.707" width="1" height="300" transform="rotate(-45 11 113.707)" fill="#252525"/>
<rect x="22" y="151.707" width="1" height="300" transform="rotate(-45 22 151.707)" fill="#252525"/>
<rect y="75.7071" width="1" height="300" transform="rotate(-45 0 75.7071)" fill="#252525"/>
<rect x="44" y="65.7071" width="1" height="336" transform="rotate(-45 44 65.7071)" fill="#252525"/>
<rect x="53" y="101.707" width="1" height="280" transform="rotate(-45 53 101.707)" fill="#252525"/>
<rect x="32" y="26.7071" width="1" height="300" transform="rotate(-45 32 26.7071)" fill="#252525"/>
<rect x="160" y="127.707" width="1" height="336" transform="rotate(-45 160 127.707)" fill="#252525"/>
<rect x="148" y="87.7071" width="1" height="300" transform="rotate(-45 148 87.7071)" fill="#252525"/>
<rect x="189" y="74.7071" width="1" height="300" transform="rotate(-45 189 74.7071)" fill="#252525"/>
<rect x="136" y="48.7071" width="1" height="300" transform="rotate(-45 136 48.7071)" fill="#252525"/>
<rect x="180" y="39.7071" width="1" height="300" transform="rotate(-45 180 39.7071)" fill="#252525"/>
<rect x="167.114" y="0.707108" width="1" height="300" transform="rotate(-45 167.114 0.707108)" fill="#252525"/>
</svg>
